<svg width="24" height="24" viewBox="0 0 24 24" fill="none" xmlns="http://www.w3.org/2000/svg">
<g clip-path="url(#clip0_6_17)">
<path d="M3.35288 8.95043C4.00437 6.17301 6.17301 4.00437 8.95043 3.35288C10.9563 2.88237 13.0437 2.88237 15.0496 3.35288C17.827 4.00437 19.9956 6.17301 20.6471 8.95044C21.1176 10.9563 21.1176 13.0437 20.6471 15.0496C19.9956 17.827 17.827 19.9956 15.0496 20.6471C13.0437 21.1176 10.9563 21.1176 8.95044 20.6471C6.17301 19.9956 4.00437 17.827 3.35288 15.0496C2.88237 13.0437 2.88237 10.9563 3.35288 8.95043Z" stroke="#363853" stroke-width="1.5"/>
<path d="M9.25 11.75L11.25 13.75L14.75 10" stroke="#363853" stroke-width="1.5" stroke-linecap="round" stroke-linejoin="round"/>
<path fill-rule="evenodd" clip-rule="evenodd" d="M9.02975 3.3437C10.9834 2.88543 13.0166 2.88543 14.9703 3.3437C17.7916 4.00549 19.9945 6.20842 20.6563 9.02975C21.1146 10.9834 21.1146 13.0166 20.6563 14.9703C19.9945 17.7916 17.7916 19.9945 14.9703 20.6563C13.0166 21.1146 10.9834 21.1146 9.02975 20.6563C6.20842 19.9945 4.0055 17.7916 3.3437 14.9703C2.88543 13.0166 2.88543 10.9834 3.3437 9.02974C4.0055 6.20841 6.20842 4.00549 9.02975 3.3437ZM15.0524 10.4773C15.2689 10.2454 15.2563 9.88195 15.0244 9.6655C14.7925 9.44906 14.4291 9.46159 14.2126 9.6935L11.2678 12.8487L9.77358 11.3545C9.54927 11.1302 9.1856 11.1302 8.9613 11.3545C8.73699 11.5788 8.73699 11.9425 8.9613 12.1668L10.8759 14.0814C10.986 14.1915 11.1362 14.2522 11.2919 14.2495C11.4477 14.2468 11.5956 14.181 11.7019 14.0671L15.0524 10.4773Z" fill="white"/>
</g>
<defs>
<clipPath id="clip0_6_17">
<rect width="24" height="24" fill="white"/>
</clipPath>
</defs>
</svg>
